<?xml version="1.0" encoding="utf-8"?>
<!-- Generator: Adobe Illustrator 27.5.0, SVG Export Plug-In . SVG Version: 6.00 Build 0)  -->
<svg version="1.1" id="_x2018_ëîé_x5F_1" xmlns="http://www.w3.org/2000/svg" xmlns:xlink="http://www.w3.org/1999/xlink"
	 x="0px" y="0px" viewBox="0 0 3000 2000" style="enable-background:new 0 0 3000 2000;" xml:space="preserve">
<rect style="fill:#FFFFFF;" width="3000" height="2000"/>
<g>
	<g>
		<g>
			<path style="fill:#DEEBE9;" d="M2434.317,1896.722c-215.887,29.302-438.306,17.093-892.767-13.569
				c-255.19-17.217-768.287,11.308-1024.4,13.569c-186.718,1.648-338.096-149.494-338.096-333.903v-562.478V412.775
				c0-184.41,151.694-344.75,338.096-333.904c173.105,10.073,427.721,49.953,693.139,25.534
				c315.676-29.042,914.851-53.721,1224.028-25.534c185.935,16.951,338.096,149.494,338.096,333.904v1150.043
				C2772.413,1747.229,2619.303,1871.614,2434.317,1896.722z"/>
		</g>
	</g>
	<g>
		<g>
			<path style="fill:#E28569;" d="M1413.32,974.101c0,0-3.817-157.455,35.776-229.147c0,0-1.584-32.891,3.168-34.475
				c4.751-1.584,21.727,7.127,48.873,0c27.146-7.127,45.488,4.001,56.906,3.98c11.418-0.021,31.729-12.707,40.578-6.364
				c8.849,6.343,4.098,27.17,4.098,27.17s39.594,121.567,41.969,238.835H1413.32z"/>
		</g>
		<g>
			<g>
				<path style="fill:#CC644C;" d="M1450.148,748.18c12.209-0.932,22.344,7.592,34.819,3.844c7.142-2.146,12.989-4.954,20.68-3.518
					c6.481,1.21,12.631,3.733,19.218,4.456c6.426,0.705,12.601-0.818,18.8-2.325c8.247-2.006,14.34-2.023,22.51,0.256
					c5.473,1.527,10.246,1.668,15.343-1.028c6.874-3.636,12.87-6.615,20.823-7.085c3.799-0.225,3.824-6.165,0-5.939
					c-5.778,0.342-11.379,1.522-16.658,3.954c-2.742,1.263-5.178,3.091-7.908,4.35c-4.375,2.017-8.765,0.311-13.081-0.898
					c-14.076-3.945-26.51,4.643-40.412,2.663c-6.585-0.938-12.79-3.588-19.384-4.514c-6.116-0.859-11.337,0.26-17.069,2.34
					c-7.094,2.574-12.73,3.034-19.976,0.816c-5.869-1.797-11.478-3.785-17.704-3.309
					C1446.361,742.531,1446.33,748.472,1450.148,748.18L1450.148,748.18z"/>
			</g>
		</g>
	</g>
	<g>
		<g>
			<path style="fill:#BED5DC;" d="M2027.161,451.118h313.749c21.296,0,38.254,14.107,37.188,30.938l-18.787,296.713
				c-1.001,15.817-17.625,28.178-37.638,27.987l-277.374-2.651c-19.705-0.188-35.812-12.492-36.743-28.068l-17.589-294.063
				C1988.963,465.174,2005.906,451.118,2027.161,451.118z"/>
		</g>
		<g>
			<path style="fill:#79A39B;" d="M2365.059,491.924l-2.441,38.502v0.01l-9.568,151.166l-5.514,87.1
				c-0.935,14.756-16.445,26.288-35.108,26.107l-181.553-1.738h-0.009l-77.173-0.733c-11.429-0.11-21.558-4.59-27.794-11.451
				c-3.795-4.169-6.156-9.241-6.485-14.736l-4.57-76.382l-8.739-146.094l-3.1-51.822c-0.935-15.68,14.868-28.789,34.698-28.789
				h292.667C2350.236,463.065,2366.057,476.224,2365.059,491.924z"/>
		</g>
		<g>
			<polygon style="fill:#8DB5AD;" points="2306.371,463.065 2014.844,689.769 2006.105,543.675 2109.754,463.065 			"/>
		</g>
		<g>
			<path style="fill:#8DB5AD;" d="M2362.618,530.436l-9.568,151.166l-222.175,111.469h-0.009l-77.173-0.733
				c-11.429-0.11-21.558-4.59-27.794-11.451L2362.618,530.436z"/>
		</g>
		<g>
			<rect x="2007.717" y="570.132" style="fill:#DEEBE9;" width="352.357" height="0.985"/>
		</g>
		<g>
			<rect x="2013.079" y="659.767" style="fill:#DEEBE9;" width="341.002" height="0.985"/>
		</g>
		<g>
			<rect x="2017.159" y="727.977" style="fill:#DEEBE9;" width="332.667" height="0.985"/>
		</g>
	</g>
	<g>
		<g>
			<ellipse style="fill:#BED5DC;" cx="1450.148" cy="1570.145" rx="1122.801" ry="176.97"/>
		</g>
	</g>
	<g>
		<polygon style="fill:#9BBCB6;" points="1965.521,1589.291 624.366,1589.291 575.653,974.525 1985.967,974.525 		"/>
	</g>
	<g>
		<path style="fill:#2F1A31;" d="M2010.019,1005.366h-1467.5c-8.517,0-15.421-6.904-15.421-15.421l0,0
			c0-8.517,6.904-15.421,15.421-15.421h1467.5c8.516,0,15.421,6.904,15.421,15.421l0,0
			C2025.439,998.462,2018.535,1005.366,2010.019,1005.366z"/>
	</g>
	<g>
		<path style="fill:#2F1A31;" d="M1770.501,439.814h-323.673c-2.02,0-3.673-1.653-3.673-3.673l0,0c0-2.02,1.653-3.673,3.673-3.673
			h323.673c2.02,0,3.673,1.653,3.673,3.673l0,0C1774.174,438.161,1772.521,439.814,1770.501,439.814z"/>
	</g>
	<g>
		<g>
			<path style="fill:#FFFFFF;" d="M1430.749,508.876c0,0,46.153,38.084,75.656,3.07c29.502-35.014-19.397-78.471-25.495-76.244
				C1474.812,437.929,1426.7,500.818,1430.749,508.876z"/>
		</g>
		<g>
			<path style="fill:#FFFFFF;" d="M1509.401,472.658c-0.649,0-1.305-0.198-1.87-0.609c-1.423-1.034-1.738-3.026-0.704-4.45
				c7.354-10.117,7.871-27.219,3.409-35.18c-1.834-3.273-4.203-4.747-7.252-4.505c-12.217,0.971-12.685,23.548-12.686,23.776
				c-0.01,1.753-1.434,3.168-3.185,3.168c-0.006,0-0.012,0-0.018,0c-1.759-0.01-3.178-1.444-3.168-3.203
				c0.007-1.169,0.369-28.647,18.553-30.091c5.528-0.438,10.27,2.308,13.313,7.741c6.202,11.067,4.421,30.712-3.813,42.041
				C1511.357,472.203,1510.387,472.658,1509.401,472.658z"/>
		</g>
		<g style="opacity:0.3;">
			<path style="fill:#7DBAD8;" d="M1446.146,512.507c0,0,22.29,12.698,37.339,8.878c15.049-3.821,29.346-25.858,23.609-34.264
				c-5.737-8.406-20.15,9.451-39.584,11.728C1448.077,501.126,1437.444,508.329,1446.146,512.507z"/>
		</g>
	</g>
	<g>
		<g>
			<path style="fill:#FFFFFF;" d="M1535.228,509.568c0,0,47.765,36.041,75.717-0.222c27.953-36.263-22.79-77.553-28.785-75.064
				C1576.165,436.773,1530.833,501.694,1535.228,509.568z"/>
		</g>
		<g>
			<path style="fill:#FFFFFF;" d="M1612.093,469.968c-0.604,0-1.215-0.172-1.756-0.53c-1.467-0.972-1.868-2.948-0.897-4.415
				c6.907-10.427,6.68-27.535,1.877-35.295c-1.976-3.191-4.41-4.559-7.441-4.185c-12.163,1.501-11.648,24.077-11.64,24.305
				c0.066,1.758-1.305,3.237-3.063,3.304c-1.753,0.064-3.237-1.304-3.305-3.063c-0.044-1.168-0.877-28.635,17.228-30.87
				c5.518-0.683,10.36,1.861,13.638,7.156c6.677,10.787,5.751,30.491-1.981,42.166
				C1614.139,469.467,1613.125,469.968,1612.093,469.968z"/>
		</g>
		<g style="opacity:0.3;">
			<path style="fill:#7DBAD8;" d="M1550.768,512.527c0,0,22.821,11.717,37.689,7.246c14.868-4.471,28.194-27.109,22.098-35.258
				c-6.097-8.149-19.72,10.318-39.037,13.437C1552.202,501.072,1541.893,508.731,1550.768,512.527z"/>
		</g>
	</g>
	<g>
		<g>
			<path style="fill:#FFFFFF;" d="M1648.758,509.568c0,0,47.765,36.041,75.717-0.222c27.952-36.263-22.79-77.553-28.785-75.064
				C1689.695,436.773,1644.363,501.694,1648.758,509.568z"/>
		</g>
		<g>
			<path style="fill:#FFFFFF;" d="M1725.623,469.968c-0.604,0-1.215-0.172-1.756-0.53c-1.467-0.972-1.868-2.948-0.897-4.415
				c6.907-10.427,6.68-27.535,1.877-35.295c-1.976-3.191-4.407-4.559-7.441-4.185c-12.163,1.501-11.648,24.077-11.64,24.305
				c0.066,1.758-1.305,3.237-3.063,3.304c-1.768,0.064-3.238-1.304-3.305-3.063c-0.044-1.168-0.877-28.635,17.227-30.87
				c5.526-0.683,10.361,1.861,13.639,7.156c6.677,10.787,5.751,30.491-1.981,42.166
				C1727.669,469.467,1726.655,469.968,1725.623,469.968z"/>
		</g>
		<g style="opacity:0.3;">
			<path style="fill:#7DBAD8;" d="M1664.299,512.527c0,0,22.821,11.717,37.689,7.246c14.868-4.471,28.195-27.109,22.098-35.258
				c-6.097-8.149-19.72,10.318-39.037,13.437C1665.732,501.072,1655.423,508.731,1664.299,512.527z"/>
		</g>
	</g>
	<g>
		<g>
			<path style="fill:#E28569;" d="M651.524,793.976l19.849,164.358c0,0,72.541,2.82,75.361,0c2.82-2.82,11.58-164.358,11.58-164.358
				H651.524z"/>
		</g>
		<g>
			<path style="fill:#FFFFFF;" d="M639.974,794.172l3.809-12.617c0.533-1.766,2.16-2.975,4.005-2.975h110.075
				c1.899,0,3.56,1.279,4.045,3.115l3.333,12.617c0.701,2.654-1.3,5.253-4.045,5.253H643.979
				C641.174,799.565,639.163,796.858,639.974,794.172z"/>
		</g>
		<g>
			<path style="fill:#FFFFFF;" d="M667.911,966.83l3.463-8.495h75.361l2.97,8.821c1.219,3.62-1.474,7.369-5.294,7.369h-71.327
				C669.116,974.525,666.413,970.504,667.911,966.83z"/>
		</g>
		<g>
			<path style="fill:#FFFFFF;" d="M706.819,895.513c-8.557,0-16.991-3.797-22.56-10.157c-4.663-5.326-6.749-11.875-5.874-18.443
				l1.177,0.157l-1.177-0.157c2.254-16.919,13.681-28.287,28.433-28.287c15.086,0,28.32,14.497,28.32,31.023
				C735.14,884.635,723.229,895.513,706.819,895.513z M706.819,841.002c-13.719,0-23.956,10.294-26.079,26.225
				c-0.783,5.879,1.101,11.762,5.307,16.565c5.124,5.853,12.89,9.346,20.772,9.346c15.033,0,25.944-9.878,25.944-23.489
				C732.764,854.388,720.64,841.002,706.819,841.002z"/>
		</g>
	</g>
	<g>
		<g>
			<path style="fill:#2F1A31;" d="M786.128,833.152l15.542,128.696c0,0,56.801,2.208,59.009,0
				c2.208-2.208,9.067-128.696,9.067-128.696H786.128z"/>
		</g>
		<g>
			<path style="fill:#FFFFFF;" d="M777.084,833.305l2.982-9.879c0.417-1.383,1.692-2.329,3.136-2.329h86.191
				c1.487,0,2.788,1.002,3.168,2.439l2.61,9.879c0.549,2.078-1.018,4.113-3.168,4.113H780.22
				C778.023,837.527,776.449,835.408,777.084,833.305z"/>
		</g>
		<g>
			<path style="fill:#FFFFFF;" d="M798.959,968.5l2.711-6.652h59.009l2.326,6.907c0.955,2.835-1.154,5.77-4.146,5.77h-55.85
				C799.903,974.525,797.787,971.377,798.959,968.5z"/>
		</g>
		<g>
			<path style="fill:#FFFFFF;" d="M829.425,912.657c-6.7,0-13.304-2.973-17.664-7.953c-3.651-4.17-5.285-9.299-4.6-14.442
				l0.922,0.123l-0.922-0.123c1.765-13.248,10.712-22.149,22.264-22.149c11.813,0,22.175,11.351,22.175,24.292
				C851.601,904.139,842.274,912.657,829.425,912.657z M829.425,869.973c-10.743,0-18.758,8.06-20.42,20.535
				c-0.613,4.604,0.862,9.21,4.155,12.971c4.012,4.582,10.093,7.318,16.265,7.318c11.771,0,20.315-7.735,20.315-18.392
				C849.74,880.455,840.248,869.973,829.425,869.973z"/>
		</g>
	</g>
	<g>
		<g>
			<g>
				<path style="fill:#68486D;" d="M1531.295,830.679l11.457,15.56c2.275,3.09,3.778,6.68,4.382,10.47l17.744,111.304
					c0.598,3.752,3.834,6.512,7.633,6.512h74.334c4.269,0,7.729-3.461,7.729-7.729V836.078c0-4.162-3.287-7.577-7.447-7.724
					c-19.012-0.674-69.191-2.554-88.375-4.279c-4.613-0.415-13.913-1.654-21.881-2.764
					C1531.685,820.589,1528.19,826.463,1531.295,830.679z"/>
			</g>
		</g>
		<g>
			<g>
				<path style="fill:#68486D;" d="M1651.156,944.601l-5.7-9.109l55.973-35.026c9.073-5.679,14.49-15.458,14.49-26.161v-8.647
					c0-6.387-5.197-11.583-11.583-11.583h-57.821v-10.746h57.821c12.313,0,22.329,10.016,22.329,22.329v8.647
					c0,14.429-7.303,27.615-19.536,35.27L1651.156,944.601z"/>
			</g>
		</g>
		<g>
			<path style="fill:#8C6793;" d="M1640.693,959.301c0,0,9.403-110.151,0-114.181c-9.403-4.03-27.762-5.373-27.762,0
				c0,5.373,5.373,51.941,5.821,68.061C1619.2,929.3,1633.081,978.555,1640.693,959.301z"/>
		</g>
		<g>
			<path style="fill:#2F1A31;" d="M1561.438,876.016c0,0,8.06,84.466,14.776,87.682c6.716,3.215,40.299,6.636,38.956,0
				c-1.343-6.636-20.558,0.976-26.847-37.084C1582.036,888.553,1562.782,859.896,1561.438,876.016z"/>
		</g>
	</g>
	<g>
		<g>
			<path style="fill:#FFFFFF;" d="M1364.274,895.98c0,0-6.31,72.72,49.281,78.121c55.591,5.401,65.399-73.798,58.942-78.382
				C1466.04,891.136,1369.567,886.335,1364.274,895.98z"/>
		</g>
		<g>
			<path style="fill:#FFFFFF;" d="M1459.109,951.612c-0.306,0-0.607-0.004-0.91-0.011c-2.146-0.054-3.841-1.837-3.787-3.982
				c0.054-2.146,1.836-3.859,3.982-3.787c15.255,0.38,32.79-10.933,37.699-20.925c2.019-4.108,1.857-7.511-0.494-10.402
				c-3.82-4.699-10.233-5.653-19.065-2.833c-7.371,2.353-13.541,6.506-13.602,6.548c-1.774,1.205-4.191,0.743-5.396-1.031
				s-0.748-4.188,1.025-5.395c0.283-0.193,7.038-4.757,15.446-7.473c15.27-4.933,23.451,0.15,27.623,5.281
				c4.277,5.261,4.789,11.914,1.439,18.732C1496.366,939.977,1476.015,951.61,1459.109,951.612z"/>
		</g>
		<g style="opacity:0.3;">
			<path style="fill:#7DBAD8;" d="M1371.284,913.96c0,0,2.673,31.18,16.926,43.652c14.254,12.472,46.286,11.581,50.76,0
				c4.473-11.581-23.44-13.699-39.179-31.645C1384.053,908.021,1369.458,902.327,1371.284,913.96z"/>
		</g>
	</g>
	<g>
		<g>
			<path style="fill:#2F1A31;" d="M1272.678,514.908H985.571c-10.589,0-19.173-8.584-19.173-19.173v-2.039
				c0-10.589,8.584-19.173,19.173-19.173h287.107c10.589,0,19.173,8.584,19.173,19.173v2.039
				C1291.851,506.324,1283.267,514.908,1272.678,514.908z"/>
		</g>
		<g>
			<path style="fill:#69A1C4;" d="M1346.644,974.525H910.118v-26.542c0-14.102,11.432-25.534,25.534-25.534h388.009
				c12.693,0,22.983,10.29,22.983,22.983V974.525z"/>
		</g>
		<g>
			<rect x="948.847" y="551.873" style="fill:#2F1A31;" width="343.003" height="370.577"/>
		</g>
		<g>
			<path style="fill:#69A1C4;" d="M1394.007,519.393V657.25c0,12.816-10.393,23.21-23.21,23.21H901.71
				c-12.816,0-23.21-10.393-23.21-23.21V519.393c0-12.816,10.393-23.21,23.21-23.21h469.088c9.384,0,17.472,5.571,21.119,13.589
				C1393.259,512.694,1394.007,515.961,1394.007,519.393z"/>
		</g>
		<g>
			<path style="fill:#436E8E;" d="M1135.363,780.25h-50.162c-8.944,0-16.195-7.251-16.195-16.195v-83.598h82.552v83.598
				C1151.558,773,1144.307,780.25,1135.363,780.25z"/>
		</g>
		<g>
			<path style="fill:#6F4975;" d="M1103.471,780.25h-14.094v23.438c0,2.217,1.797,4.014,4.014,4.014h6.065
				c2.217,0,4.014-1.797,4.014-4.014V780.25z"/>
		</g>
		<g>
			<path style="fill:#6F4975;" d="M1131.187,780.25h-14.094v23.438c0,2.217,1.797,4.014,4.014,4.014h6.065
				c2.217,0,4.014-1.797,4.014-4.014V780.25z"/>
		</g>
		<g>
			<g>
				
					<ellipse transform="matrix(0.7071 -0.7071 0.7071 0.7071 -32.3048 976.3738)" style="fill:#E28569;" cx="1162.435" cy="527.182" rx="7.523" ry="7.523"/>
			</g>
			<g>
				
					<ellipse transform="matrix(0.2298 -0.9732 0.9732 0.2298 404.6991 1565.7231)" style="fill:#DEEBE9;" cx="1191.536" cy="527.182" rx="7.523" ry="7.523"/>
			</g>
			<g>
				
					<ellipse transform="matrix(0.2298 -0.9732 0.9732 0.2298 427.1143 1594.0459)" style="fill:#2F1A31;" cx="1220.637" cy="527.182" rx="7.523" ry="7.523"/>
			</g>
		</g>
		<g>
			<g>
				<path style="fill:#69A1C4;" d="M1328.682,739.998c-1.435,0-2.831-0.744-3.602-2.075l-18.398-31.778h-36.207
					c-2.296,0-4.157-1.861-4.157-4.157s1.861-4.157,4.157-4.157h38.604c1.483,0,2.854,0.79,3.598,2.074l19.599,33.852
					c1.15,1.987,0.472,4.53-1.515,5.681C1330.105,739.817,1329.389,739.998,1328.682,739.998z"/>
			</g>
			<g>
				<g>
					<path style="fill:#2F1A31;" d="M1358.374,833.717l-45.124-110.066l16.418-9.191l64.339,103.326
						C1394.007,817.785,1394.433,839.002,1358.374,833.717z"/>
				</g>
				<g>
					<path style="fill:#68486D;" d="M1388.959,816.314c0.368-0.864-25.538-43.517-29.398-41.803s11.284,42.991,16.926,45.663
						C1382.13,822.847,1387.282,820.255,1388.959,816.314z"/>
				</g>
			</g>
		</g>
		<g>
			<path style="fill:#6F4975;" d="M1083.594,848.682c0.792-1.584,15.863-23.756,12.83-32.368c-3.033-8.612,6.274-0.891,8.353,12.769
				c2.079,13.66-5.345,19.599-5.345,19.599H1083.594z"/>
		</g>
		<g style="opacity:0.8;">
			<path style="fill:#FFFFFF;" d="M1109.574,848.682c0.792-1.584,15.862-23.756,12.83-32.368c-3.032-8.612,6.274-0.891,8.353,12.769
				c2.079,13.66-5.345,19.599-5.345,19.599H1109.574z"/>
		</g>
		<g>
			<g>
				<path style="fill:#FFFFFF;" d="M1055.41,844.064c0,0-6.31,72.72,49.281,78.121c55.591,5.401,65.399-73.798,58.942-78.382
					C1157.175,839.22,1060.702,834.42,1055.41,844.064z"/>
			</g>
			<g>
				<path style="fill:#FFFFFF;" d="M1150.245,899.696c-0.305,0-0.607-0.004-0.91-0.011c-2.146-0.054-3.841-1.837-3.787-3.983
					c0.054-2.146,1.834-3.845,3.982-3.787c15.243,0.389,32.79-10.934,37.699-20.926c2.019-4.108,1.857-7.511-0.494-10.402
					c-9.434-11.601-32.435,3.557-32.664,3.713c-1.773,1.209-4.19,0.749-5.399-1.025c-1.208-1.774-0.749-4.191,1.025-5.399
					c0.283-0.193,7.038-4.757,15.445-7.473c15.272-4.933,23.45,0.15,27.623,5.281c4.278,5.262,4.789,11.914,1.439,18.732
					C1187.501,888.062,1167.15,899.696,1150.245,899.696z"/>
			</g>
			<g style="opacity:0.3;">
				<path style="fill:#7DBAD8;" d="M1062.419,862.044c0,0,2.672,31.18,16.926,43.652c14.254,12.472,46.286,11.581,50.76,0
					c4.473-11.581-23.44-13.699-39.179-31.645C1075.188,856.105,1060.594,850.411,1062.419,862.044z"/>
			</g>
		</g>
		<g>
			<path style="fill:#85C0DD;" d="M1002.614,496.184L925.965,680.46H901.71c-12.816,0-23.21-10.393-23.21-23.21V519.393
				c0-12.816,10.393-23.21,23.21-23.21H1002.614z"/>
		</g>
		<g style="opacity:0.5;">
			<polygon style="fill:#85C0DD;" points="1350.439,496.184 1249.535,680.46 1012.247,680.46 1113.151,496.184 			"/>
		</g>
		<g>
			<path style="fill:#85C0DD;" d="M1394.007,519.393V657.25c0,12.816-10.393,23.21-23.21,23.21h-72.349l93.468-170.688
				C1393.259,512.694,1394.007,515.961,1394.007,519.393z"/>
		</g>
		<g>
			<g>
				<path style="fill:#2F1A31;" d="M954.519,630.125c-10.046,0-20.449-4.216-28.539-11.567
					c-8.283-7.526-13.034-17.453-13.034-27.234c0-11.382,5.258-22.972,14.066-31.003c7.822-7.133,17.626-10.554,27.617-9.63
					c21.743,2.009,37.524,17.834,37.524,37.629C992.153,612.152,975.974,630.125,954.519,630.125z M951.436,552.918
					c-8.273,0-16.282,3.193-22.824,9.158c-8.198,7.476-13.291,18.683-13.291,29.248c0,18.724,19.049,36.426,39.197,36.426
					c20.101,0,35.258-16.952,35.258-39.431c0-18.539-14.874-33.369-35.367-35.263C953.417,552.963,952.424,552.918,951.436,552.918z
					"/>
			</g>
			<g>
				<path style="fill:#2F1A31;" d="M927.213,590.986c0-13.276,11.49-27.42,26.636-26.02c13.219,1.222,24.038,10.762,24.038,24.038
					c0,15.823-10.762,26.791-24.038,26.791S927.213,604.262,927.213,590.986z"/>
			</g>
		</g>
		<g>
			<g>
				<path style="fill:#2F1A31;" d="M1078.269,630.125c-10.046,0-20.449-4.216-28.54-11.567
					c-8.283-7.526-13.034-17.453-13.034-27.234c0-11.382,5.258-22.972,14.066-31.003c7.822-7.133,17.626-10.556,27.617-9.63
					c21.743,2.009,37.524,17.834,37.524,37.629C1115.903,612.152,1099.724,630.125,1078.269,630.125z M1075.186,552.918
					c-8.273,0-16.282,3.193-22.824,9.158c-8.198,7.475-13.291,18.683-13.291,29.248c0,18.724,19.049,36.426,39.197,36.426
					c20.101,0,35.258-16.952,35.258-39.431c0-18.539-14.874-33.369-35.367-35.263
					C1077.166,552.963,1076.174,552.918,1075.186,552.918z"/>
			</g>
			<g>
				<path style="fill:#2F1A31;" d="M1050.962,590.986c0-13.276,11.49-27.42,26.636-26.02c13.219,1.222,24.038,10.762,24.038,24.038
					c0,15.823-10.762,26.791-24.038,26.791C1064.323,615.794,1050.962,604.262,1050.962,590.986z"/>
			</g>
		</g>
		<g>
			<g>
				<g>
					<path style="fill:#2F1A31;" d="M1287.372,550.091h-22.207c-5.042,0-9.145-4.103-9.145-9.145v-9.982
						c0-5.043,4.103-9.145,9.145-9.145h22.207c5.042,0,9.145,4.103,9.145,9.145v9.982
						C1296.517,545.988,1292.415,550.091,1287.372,550.091z M1265.166,523.439c-4.149,0-7.525,3.375-7.525,7.525v9.982
						c0,4.149,3.375,7.525,7.525,7.525h22.207c4.149,0,7.525-3.375,7.525-7.525v-9.982c0-4.149-3.375-7.525-7.525-7.525H1265.166z"
						/>
				</g>
				<g>
					<path style="fill:#2F1A31;" d="M1347.846,550.091h-22.207c-5.042,0-9.145-4.103-9.145-9.145v-9.982
						c0-5.043,4.103-9.145,9.145-9.145h22.207c5.042,0,9.145,4.103,9.145,9.145v9.982
						C1356.991,545.988,1352.889,550.091,1347.846,550.091z M1325.64,523.439c-4.149,0-7.525,3.375-7.525,7.525v9.982
						c0,4.149,3.375,7.525,7.525,7.525h22.207c4.149,0,7.525-3.375,7.525-7.525v-9.982c0-4.149-3.375-7.525-7.525-7.525H1325.64z"/>
				</g>
			</g>
			<g>
				<g>
					<path style="fill:#2F1A31;" d="M1287.372,594.467h-22.207c-5.042,0-9.145-4.103-9.145-9.145v-9.982
						c0-5.042,4.103-9.145,9.145-9.145h22.207c5.042,0,9.145,4.103,9.145,9.145v9.982
						C1296.517,590.365,1292.415,594.467,1287.372,594.467z M1265.166,567.815c-4.149,0-7.525,3.375-7.525,7.525v9.982
						c0,4.149,3.375,7.525,7.525,7.525h22.207c4.149,0,7.525-3.376,7.525-7.525v-9.982c0-4.149-3.375-7.525-7.525-7.525H1265.166z"
						/>
				</g>
				<g>
					<path style="fill:#2F1A31;" d="M1347.846,594.467h-22.207c-5.042,0-9.145-4.103-9.145-9.145v-9.982
						c0-5.042,4.103-9.145,9.145-9.145h22.207c5.042,0,9.145,4.103,9.145,9.145v9.982
						C1356.991,590.365,1352.889,594.467,1347.846,594.467z M1325.64,567.815c-4.149,0-7.525,3.375-7.525,7.525v9.982
						c0,4.149,3.375,7.525,7.525,7.525h22.207c4.149,0,7.525-3.376,7.525-7.525v-9.982c0-4.149-3.375-7.525-7.525-7.525H1325.64z"/>
				</g>
			</g>
			<g>
				<g>
					<path style="fill:#2F1A31;" d="M1287.372,643.771h-22.207c-5.042,0-9.145-4.102-9.145-9.144v-9.983
						c0-5.042,4.103-9.144,9.145-9.144h22.207c5.042,0,9.145,4.102,9.145,9.144v9.983
						C1296.517,639.669,1292.415,643.771,1287.372,643.771z M1265.166,617.12c-4.149,0-7.525,3.375-7.525,7.524v9.983
						c0,4.149,3.375,7.524,7.525,7.524h22.207c4.149,0,7.525-3.376,7.525-7.524v-9.983c0-4.149-3.375-7.524-7.525-7.524H1265.166z"
						/>
				</g>
				<g>
					<path style="fill:#2F1A31;" d="M1347.846,643.771h-22.207c-5.042,0-9.145-4.102-9.145-9.144v-9.983
						c0-5.042,4.103-9.144,9.145-9.144h22.207c5.042,0,9.145,4.102,9.145,9.144v9.983
						C1356.991,639.669,1352.889,643.771,1347.846,643.771z M1325.64,617.12c-4.149,0-7.525,3.375-7.525,7.524v9.983
						c0,4.149,3.375,7.524,7.525,7.524h22.207c4.149,0,7.525-3.376,7.525-7.524v-9.983c0-4.149-3.375-7.524-7.525-7.524H1325.64z"/>
				</g>
			</g>
		</g>
	</g>
	<g>
		<path style="fill:#79A39B;" d="M958.796,1486.005H784.098c-1.797-28.14-25.145-50.044-53.343-50.044l-18.377-287.734
			c30.861,0,55.31-26.06,53.343-56.858h193.075c0,29.52,23.931,53.451,53.451,53.451v287.734
			C982.727,1432.554,958.796,1456.485,958.796,1486.005z"/>
	</g>
	<g>
		<path style="fill:#79A39B;" d="M973.316,1519.264H772.327c-1.88,0-3.437-1.46-3.556-3.336
			c-1.943-30.415-27.338-54.24-57.815-54.24c-1.88,0-3.436-1.46-3.556-3.336l-21.143-331.035c-0.063-0.982,0.284-1.947,0.957-2.666
			c0.673-0.718,1.614-1.125,2.599-1.125c16.177,0,31.181-6.497,42.249-18.295c11.068-11.798,16.596-27.186,15.564-43.329
			c-0.063-0.983,0.284-1.947,0.958-2.666c0.673-0.718,1.614-1.125,2.599-1.125h222.132c1.968,0,3.564,1.596,3.564,3.563
			c0,31.943,25.988,57.932,57.932,57.932c1.968,0,3.563,1.596,3.563,3.563v331.036c0,1.968-1.596,3.563-3.563,3.563
			c-31.944,0-57.932,25.988-57.932,57.932C976.879,1517.668,975.284,1519.264,973.316,1519.264z M775.584,1512.137h194.265
			c1.792-33.043,28.356-59.606,61.398-61.398v-324.103c-33.043-1.792-59.607-28.355-61.398-61.398H754.875
			c0.124,16.736-6.054,32.547-17.615,44.869c-11.56,12.322-26.945,19.496-43.655,20.439l20.7,324.101
			C745.917,1456.266,771.953,1480.692,775.584,1512.137z"/>
	</g>
	<g>
		<path style="fill:#79A39B;" d="M1366.959,1486.005h-174.698c-1.797-28.14-25.145-50.044-53.343-50.044l-18.377-287.734
			c30.861,0,55.31-26.06,53.343-56.858h193.075c0,29.52,23.931,53.451,53.451,53.451v287.734
			C1390.89,1432.554,1366.959,1456.485,1366.959,1486.005z"/>
	</g>
	<g>
		<path style="fill:#79A39B;" d="M1381.479,1519.264H1180.49c-1.88,0-3.437-1.46-3.556-3.336
			c-1.943-30.415-27.337-54.24-57.814-54.24c-1.88,0-3.437-1.46-3.556-3.336l-21.143-331.035c-0.063-0.982,0.284-1.947,0.958-2.666
			c0.673-0.718,1.614-1.125,2.599-1.125c16.177,0,31.181-6.497,42.25-18.295c11.068-11.798,16.596-27.186,15.564-43.329
			c-0.063-0.983,0.284-1.947,0.958-2.666c0.673-0.718,1.614-1.125,2.599-1.125h222.132c1.968,0,3.563,1.596,3.563,3.563
			c0,31.943,25.988,57.932,57.932,57.932c1.968,0,3.563,1.596,3.563,3.563v331.036c0,1.968-1.595,3.563-3.563,3.563
			c-31.944,0-57.932,25.988-57.932,57.932C1385.042,1517.668,1383.447,1519.264,1381.479,1519.264z M1183.748,1512.137h194.265
			c1.792-33.043,28.355-59.606,61.399-61.398v-324.103c-33.043-1.792-59.607-28.355-61.399-61.398h-214.974
			c0.124,16.736-6.054,32.547-17.615,44.869c-11.56,12.322-26.945,19.496-43.655,20.439l20.7,324.101
			C1154.081,1456.266,1180.116,1480.692,1183.748,1512.137z"/>
	</g>
	<g>
		<path style="fill:#79A39B;" d="M1761.233,1486.005h-174.698c-1.797-28.14-25.145-50.044-53.343-50.044l-18.377-287.734
			c30.861,0,55.31-26.06,53.343-56.858h193.075c0,29.52,23.931,53.451,53.451,53.451v287.734
			C1785.164,1432.554,1761.233,1456.485,1761.233,1486.005z"/>
	</g>
	<g>
		<path style="fill:#79A39B;" d="M1775.753,1519.264h-200.988c-1.88,0-3.437-1.46-3.557-3.336
			c-1.942-30.415-27.338-54.24-57.813-54.24c-1.88,0-3.437-1.46-3.557-3.336l-21.143-331.035c-0.063-0.982,0.284-1.947,0.958-2.666
			c0.673-0.718,1.614-1.125,2.599-1.125c16.176,0,31.181-6.497,42.25-18.295s16.596-27.186,15.563-43.329
			c-0.063-0.982,0.284-1.947,0.958-2.666c0.674-0.718,1.614-1.125,2.599-1.125h222.132c1.968,0,3.563,1.596,3.563,3.563
			c0,31.943,25.988,57.932,57.933,57.932c1.968,0,3.563,1.596,3.563,3.563v331.036c0,1.968-1.596,3.563-3.563,3.563
			c-31.944,0-57.933,25.988-57.933,57.932C1779.316,1517.668,1777.721,1519.264,1775.753,1519.264z M1578.021,1512.137h194.265
			c1.792-33.043,28.355-59.606,61.399-61.398v-324.103c-33.044-1.792-59.607-28.355-61.399-61.398h-214.974
			c0.124,16.736-6.054,32.547-17.614,44.869s-26.944,19.496-43.655,20.439l20.7,324.101
			C1548.354,1456.266,1574.391,1480.692,1578.021,1512.137z"/>
	</g>
	<g>
		<path style="fill:#79A39B;" d="M621.167,1552.49c-1.962,0-3.557-1.588-3.563-3.552c-0.006-1.969,1.584-3.568,3.552-3.575
			l1244.636-3.977c0.004,0,0.008,0,0.012,0c1.963,0,3.558,1.588,3.563,3.552c0.006,1.969-1.584,3.568-3.552,3.575l-1244.637,3.977
			C621.175,1552.49,621.171,1552.49,621.167,1552.49z"/>
	</g>
	<g>
		<g>
			<path style="fill:#B2B279;" d="M2286.302,1420.103c0,0,48.033-181.02,8.042-247.637
				c-39.991-66.617-174.025-76.448-223.319-27.878c-49.293,48.57-55.437,107.869,21.389,132.919
				c76.827,25.05,179.094-65.589,198.259-56.273c19.165,9.316-19.024,191.747-19.024,191.747L2286.302,1420.103z"/>
		</g>
		<g>
			<g>
				<path style="fill:#C4C695;" d="M2061.898,1230.179l-1.2-1.553c0.371-0.282,37.582-28.425,84.745-49.403
					c27.733-12.336,53.442-19.823,76.412-22.255c28.813-3.053,53.386,1.889,73.03,14.678l-1.081,1.637
					c-19.253-12.536-43.389-17.373-71.74-14.37c-22.762,2.409-48.27,9.842-75.814,22.094
					C2099.294,1201.894,2062.266,1229.898,2061.898,1230.179z"/>
			</g>
		</g>
		<g>
			<path style="fill:#E28569;" d="M2340.289,1563.729h-101.673c-15.552,0-28.52-9.415-29.855-21.676l-14.666-134.702h186.715
				l-13.285,136.423C2366.429,1555.035,2354.562,1563.729,2340.289,1563.729z"/>
		</g>
		<g>
			<path style="fill:#BC6655;" d="M2387.522,1378.651v26.783c0,16.573-44.396,30.003-99.171,30.003
				c-54.765,0-99.171-13.43-99.171-30.003v-26.783c0-8.413,25.573-15.625,61.827-18.602c11.527-0.959,24.134-1.489,37.343-1.489
				C2343.126,1358.561,2387.522,1367.548,2387.522,1378.651z"/>
		</g>
		<g>
			<path style="fill:#060633;" d="M2387.523,1378.655c0,1.613-0.934,3.177-2.705,4.682c-4.415,3.743-14.057,7.101-27.277,9.701
				c-5.155,1.023-10.867,1.938-17.016,2.708c-1.589,0.205-3.214,0.397-4.875,0.566c-0.958,0.12-1.941,0.217-2.923,0.313
				c-5.106,0.53-10.479,0.963-16.046,1.288c-0.388,0.036-0.776,0.06-1.177,0.072c-2.899,0.168-5.846,0.313-8.842,0.421
				c-2.038,0.084-4.099,0.145-6.186,0.205c-0.8,0.012-1.613,0.036-2.426,0.048c-3.19,0.06-6.428,0.096-9.703,0.096
				c-1.407,0-2.802-0.012-4.197-0.024c-0.837,0-1.686-0.012-2.51-0.024c-3.299-0.048-6.562-0.12-9.763-0.241
				c-5.349-0.168-10.564-0.445-15.585-0.794c-0.946-0.072-1.868-0.133-2.802-0.205h-0.012c-0.752-0.06-1.492-0.12-2.232-0.181
				c-0.849-0.072-1.686-0.144-2.523-0.217c-5.506-0.481-10.758-1.071-15.694-1.745c-26.452-3.599-43.844-9.725-43.844-16.67
				c0-4.261,6.549-8.209,17.72-11.458c6.343-1.842,14.178-3.466,23.153-4.778c0.485-0.084,0.983-0.156,1.48-0.217h0.012
				c0.885-0.132,1.783-0.253,2.693-0.373c5.264-0.698,10.867-1.3,16.761-1.781c0.315-0.024,0.618-0.048,0.934-0.072
				c5.834-0.469,11.947-0.83,18.265-1.059c3.821-0.156,7.726-0.253,11.704-0.301c2.122-0.036,4.281-0.048,6.44-0.048
				c3.396,0,6.743,0.036,10.042,0.108c0.825,0.012,1.637,0.024,2.45,0.048c5.834,0.145,11.51,0.397,16.98,0.746
				c1.48,0.084,2.959,0.193,4.415,0.301c4.669,0.337,9.169,0.746,13.487,1.228c6.186,0.674,11.983,1.493,17.283,2.419
				c0.898,0.156,1.783,0.313,2.644,0.482c0.594,0.108,1.189,0.217,1.771,0.337c8.781,1.721,15.998,3.779,21.152,6.066
				C2384.321,1372.841,2387.523,1375.67,2387.523,1378.655z"/>
		</g>
		<g>
			<path style="fill:#C4C695;" d="M2304.97,1394.325c0,0,37.099-183.535,102.541-225.904c65.442-42.37,190.17,7.311,212.911,72.447
				c22.74,65.136,1.974,121.073-78.124,110.033c-80.098-11.04-131.766-137.081-153.106-137.081
				c-21.341,0-67.905,180.505-67.905,180.505H2304.97z"/>
		</g>
		<g>
			<g>
				<path style="fill:#CFD3A3;" d="M2573.439,1340.01c-0.207-0.413-21.064-41.753-53.981-81.006
					c-19.303-23.019-38.914-40.823-58.285-52.918c-24.125-15.065-47.939-21.257-70.781-18.403l-0.246-1.942
					c23.308-2.912,47.566,3.38,72.092,18.697c19.551,12.21,39.319,30.156,58.758,53.341c33.057,39.427,54.001,80.945,54.209,81.36
					L2573.439,1340.01z"/>
			</g>
		</g>
		<g>
			<path style="fill:#9BBCB6;" d="M2281.217,1475.823c0,0,0.989-187.188-54.491-241.793
				c-55.479-54.604-187.744-30.927-223.263,28.315s-26.555,118.186,54.14,123.415c80.695,5.229,156.932-107.87,177.833-103.597
				c20.901,4.274,29.8,190.391,29.8,190.391L2281.217,1475.823z"/>
		</g>
		<g>
			<path style="fill:#B0D6CE;" d="M2016.145,1347.493l-1.541-1.217c0.287-0.364,29.243-36.834,69.638-68.829
				c23.753-18.814,46.765-32.432,68.395-40.475c27.135-10.09,52.167-11.393,74.404-3.874l-0.629,1.861
				c-21.801-7.372-46.391-6.073-73.091,3.854c-21.437,7.972-44.269,21.487-67.859,40.174
				C2045.244,1310.841,2016.432,1347.13,2016.145,1347.493z"/>
		</g>
		<g>
			<path style="fill:#CFD3A3;" d="M2395.558,1332.815c0,0-22.509-40.589-73.362-38.764c-50.853,1.826-99.969,153.596-81.085,196.187
				c28.918,65.222,127.303,72.879,167.616,0C2428.903,1453.766,2420.533,1366.492,2395.558,1332.815z"/>
		</g>
		<g>
			<g>
				<path style="fill:#C4C695;" d="M2322.914,1499.571l-1.929-0.403c0.221-1.045,21.996-105.459,10.416-184.088l1.951-0.284
					C2344.983,1393.774,2323.136,1498.522,2322.914,1499.571z"/>
			</g>
		</g>
	</g>
	<g>
		<g>
			<path style="fill:#F7B686;" d="M1599.894,625.636c0,0,25.36,178.621,108.296,196.693
				c82.937,18.072,105.786-169.881,105.786-169.881l-54.89-74.551c0,0-48.954,110.81-59.061,101.639
				c-10.107-9.171-48.715-102.357-60.141-95.619C1628.456,590.656,1599.894,625.636,1599.894,625.636z"/>
		</g>
		<g>
			<g>
				<path style="fill:#2F1A31;" d="M1869.36,1593.955c0,0-1.3,24.791-18.405,31.335s-66.286,11.547-48.406,27.986
					c10.259,9.433,59.942,4.846,73.922,5.22c13.983,0.374,26.945,6.773,37.588-2.236c11.708-9.911,1.659-61.065,1.659-61.065
					s-12.235,5.914-23.077,5.344C1877.016,1599.718,1869.36,1593.955,1869.36,1593.955z"/>
			</g>
		</g>
		<g>
			<g>
				<path style="fill:#6F4975;" d="M1774.791,1142.877c0.892,6.692,0.379,17.449,1.345,24.354
					c21.778,155.739,39.6,314.565,52.619,389.87c4.657,26.937,26.831,47.135,53.712,48.927l14.446,0.963
					c29.065,1.937,53.355-22.235,52.031-51.78l-22.748-507.714l-4.469-167.026C1921.727,880.469,1747.814,940.497,1774.791,1142.877
					z"/>
			</g>
		</g>
		<g>
			<g>
				<path style="fill:#2F1A31;" d="M2029.557,1598.242c0,0-1.301,24.791-18.405,31.335s-66.286,11.547-48.406,27.986
					c10.259,9.433,59.942,4.846,73.922,5.22c13.983,0.374,26.945,6.773,37.588-2.236c11.708-9.911,1.659-61.065,1.659-61.065
					s-12.235,5.914-23.077,5.344C2037.212,1604.005,2029.557,1598.242,2029.557,1598.242z"/>
			</g>
		</g>
		<g>
			<g>
				<path style="fill:#6F4975;" d="M1903.969,845.698c0,0-6.417,111.862,23.749,327.59
					c21.778,155.739,48.214,312.795,61.233,388.099c4.657,26.937,26.831,47.135,53.712,48.927l14.446,0.963
					c29.065,1.937,53.355-22.235,52.031-51.78l-22.748-507.714l-4.469-167.026L1903.969,845.698z"/>
			</g>
		</g>
		<g>
			<g>
				<path style="fill:#2F1A31;" d="M2097.208,973.651c-0.715,13.498-83.163,16.659-184.869,10.784
					c-101.706-5.875-135.238-21.286-134.522-34.783c0.715-13.498,35.407-19.972,137.113-14.096
					C2016.635,941.431,2097.923,960.153,2097.208,973.651z"/>
			</g>
		</g>
		<g>
			<g>
				<path style="fill:#E28569;" d="M2100.086,620.825c-1.797-15.141-7.656-29.526-17.101-41.551
					c-19.766-25.163-63.028-61.465-149.166-64.236c-191.49-6.161-172.229,198.482-174.734,418.221c0,0,160.666-5.771,338.308,37.07
					C2097.394,970.33,2112.666,726.824,2100.086,620.825z"/>
			</g>
		</g>
		<g>
			<g>
				<path style="fill:#E28569;" d="M2102.218,643.413l-58.274-16.359c0,0-200.666,57.083-242.598,28.058
					c-46.914-32.473-50.089-73.039-50.089-73.039s26.56-52.853,135.946-65.26c8.637-0.979,17.534-1.95,26.773-2.3
					c15.507-0.575,30.902,0.987,46.111,2.146C2105.055,527.699,2102.218,643.413,2102.218,643.413z"/>
			</g>
		</g>
		<g>
			<g>
				<path style="fill:#F7B686;" d="M1952.518,499.324l-9.153-32.376l-2.663-9.426l-15.664-55.421l-3.743,54.611
					c0,0-2.147,24.566-2.242,32.779c-0.213,18.357-3.407,24.946-3.407,24.946c-6.807,6.839-23.871,16.939-8.546,24.153
					c19.09,8.99,55.747-3.648,69.936-20.084C1976.928,518.481,1956.826,516.189,1952.518,499.324z"/>
			</g>
		</g>
		<g>
			<g>
				<path style="fill:#6F4975;" d="M1772.945,955.709c0,0,84.341-24.69,311.562,25.626l0.874,32.657l-309.564,2.571
					L1772.945,955.709z"/>
			</g>
		</g>
		<g>
			<g>
				<g>
					<path style="fill:#56335B;" d="M1861.4,399.322c0,0-2.184,13.601,2.924,29.861c5.108,16.26,18.119-26.289,18.119-26.289
						L1861.4,399.322z"/>
				</g>
			</g>
			<g>
				<g>
					
						<ellipse transform="matrix(0.0446 -0.999 0.999 0.0446 1391.5105 2326.2273)" style="fill:#F7B686;" cx="1911.946" cy="435.609" rx="58.968" ry="49.194"/>
				</g>
			</g>
			<g>
				<g>
					<path style="fill:#2F1A31;" d="M1960.7,420.124l-23.944-0.05c-5.264-0.011-10.305-2.31-13.555-6.412
						c-5.595-7.061-11.821-10.348-33.852-7.291c-27.898,3.871-48.01-10.844-52.459-25.091c-4.542-14.542,8.801-26.057,23.558-20.394
						c14.757,5.662,7.02-11.096,20.363-14.305c24.934-5.996,31.563,12.876,52.192,10.159c27.049-3.564,77.65,12.007,59.247,61.772
						L1960.7,420.124z"/>
				</g>
			</g>
			<g>
				<g>
					<g>
						<path style="fill:#060633;" d="M1909.129,433.411c-0.27-0.134-0.476-0.388-0.533-0.707c-0.098-0.537,0.259-1.054,0.8-1.155
							c0.319-0.059,7.586-2.119,12.076,5.314c0.283,0.469,0.151,1.075-0.317,1.368c-0.467,0.292-0.988,0.081-1.375-0.309
							c-3.873-3.89-9.761-4.471-10.026-4.424C1909.533,433.539,1909.315,433.504,1909.129,433.411z"/>
					</g>
				</g>
			</g>
			<g>
				<g>
					<path style="fill:#060633;" d="M1914.671,445.626c-0.401,2.333-2.106,3.996-3.809,3.714c-1.702-0.282-2.757-2.402-2.356-4.735
						c0.401-2.333,2.106-3.996,3.809-3.714C1914.018,441.173,1915.073,443.293,1914.671,445.626z"/>
				</g>
			</g>
			<g>
				<g>
					<g>
						<path style="fill:#060633;" d="M1872.116,434.191c-0.233-0.017-0.453-0.169-0.585-0.437c-0.222-0.453-0.108-1.067,0.255-1.372
							c0.214-0.179,4.895-4.922,10.233,0.12c0.336,0.318,0.411,0.925,0.155,1.377c-0.256,0.451-0.692,0.462-1.082,0.258
							c-3.896-2.04-8.321-0.258-8.5-0.11C1872.444,434.15,1872.277,434.203,1872.116,434.191z"/>
					</g>
				</g>
			</g>
			<g>
				<g>
					<path style="fill:#060633;" d="M1882.158,443.383c0.523,2.305-0.419,4.485-2.104,4.869c-1.685,0.384-3.474-1.173-3.997-3.478
						c-0.523-2.305,0.419-4.485,2.104-4.869C1879.846,439.521,1881.635,441.078,1882.158,443.383z"/>
				</g>
			</g>
			<g>
				<g>
					<path style="fill:#56335B;" d="M1992.251,418.511c0,0-12.932,36.742-35.895,41.66c0,0,16.153-28.637-25.007-40.94
						C1931.349,419.231,1967.119,409.888,1992.251,418.511z"/>
				</g>
			</g>
			<g>
				<g>
					<path style="fill:#F7B686;" d="M1961.421,441.18c-4.658,3.639-11.072,3.247-14.326-0.875
						c-3.254-4.122-2.117-10.414,2.541-14.052c4.658-3.639,11.071-3.247,14.326,0.875
						C1967.216,431.249,1966.078,437.541,1961.421,441.18z"/>
				</g>
			</g>
			<g>
				<g>
					<path style="fill:#56335B;" d="M1931.349,419.231c0,0,6.052,29.127,0.563,35.303c-5.489,6.175-45.096,12.593-64.388,7.333v0
						c1.542,18.943,16.597,34.284,35.682,35.521c6.314,0.409,12.741-0.232,19.016-1.985l0,0
						c12.795-3.574,24.926-10.199,29.118-22.735c1.276-3.814-5.673-25.786-5.673-25.786s-3.075-12.996,3.969-20.631
						C1949.636,426.252,1939.948,419.199,1931.349,419.231z"/>
				</g>
			</g>
			<g>
				<g>
					<path style="fill:#2F1A31;" d="M1865.375,357.844c-0.74,0.23-1.581,0.387-2.554,0.455l-0.084-1.335
						c6.456-0.422,6.544-5.632,6.546-5.85l1.339-0.015C1870.623,351.158,1870.585,356.222,1865.375,357.844z"/>
				</g>
			</g>
			<g>
				<g>
					<path style="fill:#FFFFFF;" d="M1880.651,399.383c-1.278-0.239-31.416-5.908-34.22-21.474
						c-0.803-4.487-0.309-7.608,1.526-9.531c2.91-3.096,8.627-2.362,13.651-1.719c0.736,0.094,1.456,0.193,2.142,0.267l-0.071,0.668
						c-0.697-0.08-1.414-0.171-2.16-0.27c-4.86-0.616-10.386-1.357-13.078,1.514c-1.677,1.761-2.117,4.69-1.349,8.953
						c2.723,15.11,33.37,20.874,33.682,20.925L1880.651,399.383z"/>
				</g>
			</g>
			<g>
				<g>
					<path style="fill:#FFFFFF;" d="M1945.175,361.046c-29.062,6.926-44.915-8.154-45.067-8.308l0.463-0.475
						c0.16,0.151,15.758,14.97,44.454,8.132L1945.175,361.046z"/>
				</g>
			</g>
			<g>
				<g>
					<path style="fill:#F7B686;" d="M1901.187,474.851c-8.368,2.605-14.567-1.643-14.656-1.703
						c-0.447-0.315-0.556-0.944-0.241-1.391c0.328-0.433,0.952-0.558,1.404-0.254c0.395,0.287,9.712,6.592,20.908-3.271
						c0.445-0.365,1.06-0.321,1.416,0.092c0.366,0.418,0.327,1.05-0.092,1.416C1906.879,472.425,1903.915,474.002,1901.187,474.851z
						"/>
				</g>
			</g>
		</g>
		<g>
			<g>
				<path style="fill:#2F1A31;" d="M1836.941,610.82l79.862,4.155c20.171,1.049,36.243,17.032,37.349,37.046
					c2.8,50.67,15.471,143.344,69.157,190.556c9.66,8.495,15.405,20.531,15.665,33.337l6.555,322.953
					c0.671,33.08-26.167,60.256-59.507,60.256h-175.166c-24.12,0-44.018-18.721-45.301-42.624
					c-3.426-63.831-9.253-188.423-9.253-297.474c0-28.962,3.08-145.583,5.289-168.969c2.446-25.892,27.133-85.645,41.309-118.262
					C1808.712,618.421,1822.287,610.058,1836.941,610.82z"/>
			</g>
		</g>
		<g>
			<g>
				<path style="fill:#2F1A31;" d="M2006.294,833.62c0,0,74.663-3.358,98.068-33.289c0,0,10.184,13.939-0.854,33.289
					c0,0-38.772,27.857-86.676,29.858C1968.928,865.479,2006.294,833.62,2006.294,833.62z"/>
			</g>
		</g>
		<g>
			<g>
				<path style="fill:#2F1A31;" d="M1829.2,621.942c0,0,10.768-71.796,53.818-107.04c0,0,9.443-5.657,12.253,0.942
					c0,0-30.387,23.197-50.557,107.6L1829.2,621.942z"/>
			</g>
		</g>
		<g>
			<g>
				<path style="fill:#2F1A31;" d="M1913.292,621.658c0,0,33.296-85.285,72.956-101.632c0,0,7.65-5.376,12.183,2.65
					c0,0-45.577,26.711-68.286,100.769L1913.292,621.658z"/>
			</g>
		</g>
		<g>
			<g>
				<g>
					<path style="fill:#2F1A31;" d="M1824.753,626.483c3.078-5.606,7.183-8.138,15.471-5.614c6.15,1.873,9.803,8.821,7.093,14.611
						s-9.307,11.048-16.907,6.357C1824.947,638.465,1821.061,633.207,1824.753,626.483z"/>
				</g>
			</g>
			<g>
				<g>
					<path style="fill:#E28569;" d="M1836.007,642.2c-1.666,0-3.332-0.516-4.99-1.549c-3.374-2.091-8.472-6.631-4.732-13.479l0,0
						c3.032-5.548,6.906-6.989,13.412-5.09c2.666,0.808,4.865,2.758,6.023,5.348c1.1,2.474,1.1,5.14-0.008,7.506
						c-1.616,3.449-4.357,6.031-7.339,6.914C1837.59,642.083,1836.799,642.2,1836.007,642.2z M1826.785,627.438L1826.785,627.438
						c-3.516,6.44,1.333,10.738,4.532,12.729c2.283,1.424,4.59,1.799,6.898,1.133c2.824-0.833,5.44-3.299,6.981-6.598
						c1.033-2.224,1.041-4.715,0-7.039c-1.091-2.441-3.157-4.274-5.665-5.032C1833.375,620.79,1829.668,622.165,1826.785,627.438
						L1826.785,627.438z"/>
				</g>
			</g>
			<g>
				<g>
					<g>
						<path style="fill:#E28569;" d="M1829.081,627.831c0.646-1.177,1.508-1.709,3.248-1.179c1.291,0.393,2.058,1.852,1.489,3.068
							s-1.954,2.32-3.55,1.335C1829.121,630.346,1828.306,629.242,1829.081,627.831z"/>
					</g>
				</g>
				<g>
					<g>
						<path style="fill:#E28569;" d="M1838.302,632.975c0.646-1.177,1.508-1.709,3.248-1.179c1.291,0.393,2.058,1.852,1.489,3.068
							c-0.569,1.216-1.954,2.32-3.55,1.335C1838.343,635.491,1837.527,634.387,1838.302,632.975z"/>
					</g>
				</g>
			</g>
		</g>
		<g>
			<g>
				<g>
					<path style="fill:#2F1A31;" d="M1906.252,643.002c-0.69-6.347,1.229-10.75,9.489-13.363c6.129-1.939,13.121,1.704,14.219,7.995
						c1.098,6.29-1.303,14.342-10.242,14.785C1913.292,652.737,1907.08,650.614,1906.252,643.002z"/>
				</g>
			</g>
			<g>
				<g>
					<path style="fill:#E28569;" d="M1918.614,651.13c-4.024,0-9.913-1.258-10.705-8.431l0,0c-0.692-6.29,1.658-9.697,8.106-11.763
						c2.657-0.825,5.573-0.483,8.006,0.983c2.324,1.408,3.857,3.599,4.307,6.173c0.65,3.732-0.108,7.398-2.041,9.813
						c-1.591,1.991-3.865,3.066-6.748,3.199C1919.238,651.122,1918.93,651.13,1918.614,651.13z M1908.475,642.633
						c0.741,6.74,6.331,7.922,10.147,7.922c0.308,0,0.608-0.008,0.883-0.017c2.716-0.125,4.848-1.133,6.331-2.991
						c1.833-2.283,2.557-5.781,1.924-9.355c-0.417-2.408-1.849-4.465-4.032-5.781c-2.308-1.4-5.057-1.741-7.547-0.925
						C1910.058,633.444,1907.817,636.677,1908.475,642.633L1908.475,642.633z"/>
				</g>
			</g>
			<g>
				<g>
					<g>
						<path style="fill:#E28569;" d="M1910.582,641.661c-0.145-1.333,0.258-2.257,1.992-2.806c1.287-0.407,2.755,0.358,2.985,1.679
							s-0.274,3.011-2.15,3.104C1912.06,643.705,1910.756,643.259,1910.582,641.661z"/>
					</g>
				</g>
				<g>
					<g>
						<path style="fill:#E28569;" d="M1920.6,639.938c-0.145-1.333,0.258-2.257,1.992-2.806c1.287-0.407,2.755,0.358,2.985,1.678
							c0.231,1.321-0.274,3.011-2.15,3.104C1922.078,641.982,1920.774,641.537,1920.6,639.938z"/>
					</g>
				</g>
			</g>
		</g>
		<g>
			<g>
				<path style="fill:#E28569;" d="M1886.303,1136.077c-28.616,0-61.405-2.016-79.449-7.797c-7.598-2.441-12.071-5.406-13.304-8.839
					c-7.873-21.868-0.367-167.212-0.042-173.393l0.058-1.05l0.958,0.442c0.608,0.266,62.554,27.424,174.26-7.073l0.8-0.25
					l0.117,0.833c0.991,7.089,24.059,173.768,5.099,186.881c-7.664,5.298-37.28,9.272-75.45,10.105
					C1895.15,1136.027,1890.776,1136.077,1886.303,1136.077z M1794.891,947.138c-0.675,13.271-7.431,151.159,0.008,171.819
					c1.075,2.982,5.24,5.665,12.388,7.956c38.404,12.313,150.709,8.789,166.696-2.266c17.578-12.154-3.799-171.611-5.59-184.665
					C1864.185,971.972,1803.147,950.412,1794.891,947.138z"/>
			</g>
		</g>
		<g>
			<g>
				
					<ellipse transform="matrix(0.1882 -0.9821 0.9821 0.1882 1027.5377 2524.6602)" style="fill:#2F1A31;" cx="2040.961" cy="640.762" rx="21.873" ry="61.07"/>
			</g>
		</g>
		<g>
			<g>
				<path style="fill:#FFFFFF;" d="M1745.844,764.671c0,0,2.746,89.953,71.594,88.56c68.848-1.393,69.452-99.782,60.885-104.465
					S1750.936,752.099,1745.844,764.671z"/>
			</g>
			<g>
				<path style="fill:#FFFFFF;" d="M1868.417,819.272c-2.447,0-4.536-1.866-4.765-4.352c-0.243-2.635,1.696-4.968,4.331-5.211
					c18.731-1.727,38.575-18.11,43.147-31.052c1.88-5.321,1.192-9.465-2.103-12.667c-13.222-12.849-39.202,9.026-39.461,9.25
					c-1.999,1.734-5.023,1.521-6.759-0.477c-1.734-1.999-1.521-5.025,0.478-6.759c1.329-1.152,32.746-28.007,52.42-8.886
					c5.996,5.827,7.579,13.899,4.46,22.731c-6.356,17.991-30.33,35.468-51.304,37.402
					C1868.713,819.265,1868.564,819.272,1868.417,819.272z"/>
			</g>
			<g style="opacity:0.3;">
				<path style="fill:#7DBAD8;" d="M1757.017,785.678c0,0,7.763,37.794,27.012,51.013c19.249,13.219,58.344,7.515,62.154-7.31
					c3.81-14.825-30.675-13.399-52.53-33.107C1771.797,776.567,1753.106,771.696,1757.017,785.678z"/>
			</g>
		</g>
		<g>
			<g>
				<g>
					<g>
						<path style="fill:#F7B686;" d="M2039.126,869.88c72.918-24.182,55.996-220.001,54.06-221.805
							c-10.562-9.849-27.983-17.053-49.243-21.022c-19.328-3.608-59.353-1.099-56.373,16.593
							c0.03,0.179-7.282,139.367-7.282,139.367s-90.687,30.614-90.821,30.315l-18.962,60.885
							C1871.194,875.761,2000.44,882.711,2039.126,869.88z"/>
					</g>
				</g>
			</g>
			<g>
				<g>
					<path style="fill:#E08B65;" d="M2014.516,788.41c-0.183,0-0.375-0.042-0.55-0.125c-0.15-0.067-15.437-7.256-33.447-4.04
						c-0.667,0.15-1.341-0.325-1.458-1.008c-0.125-0.683,0.325-1.341,1.008-1.458c18.944-3.424,34.347,3.94,34.997,4.24
						c0.625,0.308,0.883,1.058,0.583,1.683C2015.432,788.144,2014.982,788.41,2014.516,788.41z"/>
				</g>
			</g>
		</g>
		<g>
			<g>
				<g>
					<path style="fill:#F7B686;" d="M1911.99,820.547c-48.653-15.564-68.044-24.58-70.43-18.085
						c-4.355,11.859,36.624,25.882,36.624,25.882S1922.522,823.916,1911.99,820.547z"/>
				</g>
			</g>
		</g>
		<g>
			<path style="fill:#F7B686;" d="M1898.575,817.509c0,0-68.056,14.836-82.53,5.313c-14.474-9.523-27.144-4.732-21.601,2.573
				c5.543,7.305,25.814,15.224,25.814,15.224s-20.271-8.625-30.17-8.668c-9.898-0.043,7.631,17.909,21.498,20.546
				c0,0-21.498-7.22-21.894-1.63c-0.396,5.59,26.352,26.574,76.811,23.803C1903.868,872.616,1898.575,817.509,1898.575,817.509z"/>
		</g>
		<g>
			<g>
				<path style="fill:#E08B65;" d="M1866.048,874.828c8.835,0.852,15.665-1.404,22.805-6.745c0.756-0.566,0.017-1.855-0.749-1.282
					c-6.87,5.138-13.55,7.362-22.056,6.542C1865.098,873.251,1865.104,874.737,1866.048,874.828L1866.048,874.828z"/>
			</g>
		</g>
		<g>
			<g>
				<path style="fill:#E08B65;" d="M1889.165,813.901c4.638,1.824,8.626,4.835,11.643,8.803c0.571,0.751,1.861,0.012,1.282-0.749
					c-3.28-4.313-7.487-7.501-12.53-9.485C1888.67,812.12,1888.284,813.555,1889.165,813.901L1889.165,813.901z"/>
			</g>
		</g>
		<g>
			<g>
				<path style="fill:#E08B65;" d="M1813.504,839.421c10.091,4.403,20.637,6.158,31.606,5.175c0.944-0.084,0.953-1.57,0-1.485
					c-10.681,0.956-21.022-0.682-30.856-4.973C1813.386,837.761,1812.63,839.039,1813.504,839.421L1813.504,839.421z"/>
			</g>
		</g>
		<g>
			<g>
				<path style="fill:#E08B65;" d="M1804.186,850.472c3.234,2.866,7.567,4.048,11.617,5.335c6.031,1.917,12.192,3.3,18.438,4.307
					c0.935,0.151,1.337-1.28,0.395-1.432c-4.857-0.783-9.665-1.77-14.402-3.101c-4.978-1.398-11.076-2.685-14.997-6.159
					C1804.523,848.791,1803.469,849.837,1804.186,850.472L1804.186,850.472z"/>
			</g>
		</g>
		<g>
			<path style="fill:#F7B686;" d="M1817.21,867.442c0,0-21.582-4.31-14.402,3.469c7.18,7.78,47.661,3.064,47.661,3.064
				L1817.21,867.442z"/>
		</g>
		<g>
			<g>
				<path style="fill:#E08B65;" d="M1810.024,867.32c4.417,1.51,9.007,0.819,13.578,1.065c0.955,0.051,0.952-1.433,0-1.485
					c-4.427-0.238-8.907,0.45-13.183-1.012C1809.512,865.579,1809.123,867.012,1810.024,867.32L1810.024,867.32z"/>
			</g>
		</g>
		<g>
			<path style="fill:#FFFFFF;" d="M1780.285,686.956c0,0,30.462,3.57,45.275,21.205c14.813,17.635,15.895,35.056,10.207,31.493
				c-5.688-3.563-11.83-5.336-18.855-5.044c-7.026,0.292-7.558-8.015-7.292-17.719S1780.285,686.956,1780.285,686.956z"/>
		</g>
		<g>
			<g>
				<path style="fill:#69A1C4;" d="M1797.265,707.26l-19.154,1.639c-3.804,0.326-7.475,1.557-10.705,3.591l-94.889,59.755
					c-3.198,2.014-7.386,1.405-9.879-1.436l-48.77-55.596c-2.801-3.193-2.483-8.051,0.71-10.852l97.767-85.763
					c3.113-2.731,7.824-2.512,10.663,0.502c12.977,13.777,47.306,50.074,61.182,63.291c3.337,3.179,10.365,9.321,16.423,14.552
					C1804.555,700.348,1802.455,706.816,1797.265,707.26z"/>
			</g>
			<g>
				<path style="fill:#69A1C4;" d="M1633.42,692.356l-10.526-64.844c-2.302-14.171,2.769-28.284,13.562-37.752l6.468-5.673
					c4.46-3.913,10.175-5.854,16.1-5.467c5.921,0.387,11.337,3.057,15.25,7.518l37.937,43.247l-8.037,7.051l-37.937-43.247
					c-2.03-2.314-4.839-3.699-7.911-3.9c-3.078-0.202-6.038,0.806-8.351,2.836l-6.468,5.674c-8.006,7.022-11.766,17.49-10.06,28.001
					l10.526,64.844L1633.42,692.356z"/>
			</g>
			<g>
				<path style="fill:#85C0DD;" d="M1629.29,709.826c0,0,76.215-79.302,85.399-74.913c9.183,4.389,22.233,17.238,18.214,20.764
					c-4.019,3.525-42.373,30.059-54.724,40.3C1665.829,706.218,1619.883,728.151,1629.29,709.826z"/>
			</g>
			<g>
				<path style="fill:#5892AF;" d="M1743.579,714.46c0,0-68.463,49.39-75.274,46.476c-6.811-2.914-31.403-25.787-25.559-29.136
					c5.844-3.349,12.758,16.016,45.35-4.251C1720.688,707.281,1754.754,702.88,1743.579,714.46z"/>
			</g>
		</g>
		<g>
			<g>
				<path style="fill:#EFA573;" d="M1607.998,581.777c0,0,4.675-22.549,23.659-18.32c24.188,5.389,48.947,37.211,33.572,34.024
					c-13.631-2.825-25.942-8.617-25.942-8.617s40.309,20.434,32.213,29.242s-43.47-10.768-43.47-10.768s38.788,26.316,28.698,32.036
					c-10.09,5.72-32.564-6.707-32.564-6.707s29.851,18.236,17.993,24.588c-11.858,6.353-31.812-11.328-41.903-16.695
					c-9.536-5.072-9.435-13.417-4.001-23.096c0,0,0.283-12.884,5.293-18.282c1.921-2.069,0.937-5.664,1.603-7.587
					C1604.422,587.916,1607.998,581.777,1607.998,581.777z"/>
			</g>
		</g>
	</g>
	<g>
		<g style="opacity:0.6;">
			<path style="fill:#9BBCB6;" d="M802.562,716.169H558.599c-10.256,0-18.668-8.127-19.021-18.377l-13.146-381.574
				c-0.365-10.589,7.988-19.437,18.58-19.682l268.353-6.217c10.898-0.253,19.781,8.682,19.465,19.579l-11.244,387.79
				C821.288,707.98,812.859,716.169,802.562,716.169z"/>
		</g>
		<g>
			<path style="fill:#79A39B;" d="M802.056,720.238H558.093c-12.241,0-22.16-9.583-22.583-21.818l-13.146-381.574
				c-0.209-6.08,1.975-11.864,6.151-16.288c4.176-4.424,9.826-6.938,15.908-7.079l268.353-6.217
				c6.251-0.151,12.134,2.22,16.547,6.659c4.414,4.439,6.744,10.329,6.563,16.586l-11.244,387.79
				C824.285,710.601,814.364,720.238,802.056,720.238z M813.313,294.383c-0.124,0-0.248,0.001-0.372,0.004l-268.353,6.217
				c-4.164,0.097-8.031,1.817-10.89,4.846c-2.859,3.029-4.354,6.989-4.211,11.151l13.146,381.574
				c0.289,8.375,7.08,14.936,15.459,14.936h243.963c8.426,0,15.218-6.598,15.462-15.02L828.762,310.3
				c0.125-4.283-1.471-8.315-4.492-11.354C821.336,295.996,817.457,294.383,813.313,294.383z"/>
		</g>
		<g>
			<g>
				<path style="fill:#79A39B;" d="M599.415,337.107h3.594c1.432,0,2.763,0.74,3.518,1.956l6.395,10.287
					c1.621,2.608,5.416,2.608,7.037,0l6.395-10.287c0.756-1.216,2.086-1.956,3.518-1.956h3.594c2.288,0,4.143,1.855,4.143,4.143
					v34.051c0,2.288-1.855,4.143-4.143,4.143h-0.969c-2.288,0-4.143-1.855-4.143-4.143v-17.766c0-1.705-2.215-2.369-3.153-0.945
					l-5.566,8.449c-1.521,2.309-4.901,2.331-6.452,0.041l-5.579-8.237c-0.952-1.445-3.2-0.771-3.2,0.959v17.5
					c0,2.288-1.855,4.143-4.143,4.143h-0.847c-2.288,0-4.143-1.855-4.143-4.143V341.25
					C595.272,338.962,597.127,337.107,599.415,337.107z"/>
			</g>
			<g>
				<path style="fill:#79A39B;" d="M651.911,337.107h23.648c2.288,0,4.143,1.855,4.143,4.143v0.001c0,2.288-1.855,4.143-4.143,4.143
					h-14.395c-2.288,0-4.143,1.855-4.143,4.143v0.303c0,2.288,1.855,4.143,4.143,4.143h11.673c2.288,0,4.143,1.855,4.143,4.143l0,0
					c0,2.288-1.855,4.143-4.143,4.143h-11.673c-2.288,0-4.143,1.855-4.143,4.143v0.605c0,2.288,1.855,4.143,4.143,4.143h14.697
					c2.288,0,4.143,1.855,4.143,4.143v0.001c0,2.288-1.855,4.143-4.143,4.143h-23.951c-2.288,0-4.143-1.855-4.143-4.143V341.25
					C647.768,338.962,649.623,337.107,651.911,337.107z"/>
			</g>
			<g>
				<path style="fill:#79A39B;" d="M692.433,337.107h2.392c1.294,0,2.513,0.604,3.297,1.634l11.155,14.658
					c2.402,3.156,7.44,1.458,7.44-2.509v-9.64c0-2.288,1.855-4.143,4.143-4.143h0.908c2.288,0,4.143,1.855,4.143,4.143v34.051
					c0,2.288-1.855,4.143-4.143,4.143h-1.728c-1.293,0-2.512-0.604-3.295-1.632l-11.822-15.518
					c-2.403-3.154-7.438-1.455-7.438,2.511v10.497c0,2.288-1.855,4.143-4.143,4.143h-0.907c-2.288,0-4.143-1.855-4.143-4.143V341.25
					C688.29,338.962,690.145,337.107,692.433,337.107z"/>
			</g>
			<g>
				<path style="fill:#79A39B;" d="M778.654,366.297c0,2.684,0.042,5.115,0.105,7.306c0.092,3.204-2.479,5.841-5.684,5.841l0,0
					c-2.919,0-5.364-2.21-5.658-5.113l-0.067-0.664h-0.252c-1.591,2.512-5.443,6.699-12.812,6.699
					c-8.374,0-14.403-5.192-14.403-17.837v-18.346c0-3.141,2.546-5.687,5.687-5.687h1.354c3.141,0,5.687,2.546,5.687,5.687v16.336
					c0,5.945,1.926,9.546,6.448,9.546c3.517,0,5.611-2.428,6.364-4.438c0.335-0.754,0.503-1.675,0.503-2.764v-18.681
					c0-3.141,2.546-5.687,5.687-5.687h1.354c3.141,0,5.687,2.546,5.687,5.687V366.297z"/>
			</g>
		</g>
		<g>
			<g>
				<circle style="fill:#79A39B;" cx="571.104" cy="435.163" r="7.82"/>
			</g>
			<g>
				<path style="fill:#79A39B;" d="M735.12,430.016H611.589c-1.47,0-2.672-1.203-2.672-2.673l0,0c0-1.47,1.203-2.673,2.672-2.673
					H735.12c1.47,0,2.673,1.203,2.673,2.673l0,0C737.793,428.813,736.59,430.016,735.12,430.016z"/>
			</g>
			<g>
				<path style="fill:#79A39B;" d="M802.828,432.75h-20.891c-2.44,0-4.436-1.996-4.436-4.436l0,0c0-2.44,1.996-4.436,4.436-4.436
					h20.891c2.44,0,4.436,1.996,4.436,4.436l0,0C807.263,430.754,805.267,432.75,802.828,432.75z"/>
			</g>
			<g>
				<path style="fill:#79A39B;" d="M683.287,446.348h-72.313c-1.132,0-2.058-0.926-2.058-2.058v-1.229
					c0-1.132,0.926-2.058,2.058-2.058h72.313c1.132,0,2.058,0.926,2.058,2.058v1.229
					C685.345,445.422,684.419,446.348,683.287,446.348z"/>
			</g>
		</g>
		<g>
			<g>
				<circle style="fill:#79A39B;" cx="571.104" cy="488.777" r="7.82"/>
			</g>
			<g>
				<path style="fill:#79A39B;" d="M735.12,483.63H611.589c-1.47,0-2.672-1.203-2.672-2.673l0,0c0-1.47,1.203-2.673,2.672-2.673
					H735.12c1.47,0,2.673,1.203,2.673,2.673l0,0C737.793,482.427,736.59,483.63,735.12,483.63z"/>
			</g>
			<g>
				<path style="fill:#79A39B;" d="M802.828,486.364h-20.891c-2.44,0-4.436-1.996-4.436-4.436l0,0c0-2.44,1.996-4.436,4.436-4.436
					h20.891c2.44,0,4.436,1.996,4.436,4.436l0,0C807.263,484.368,805.267,486.364,802.828,486.364z"/>
			</g>
			<g>
				<path style="fill:#79A39B;" d="M683.287,499.962h-72.313c-1.132,0-2.058-0.926-2.058-2.058v-1.229
					c0-1.132,0.926-2.058,2.058-2.058h72.313c1.132,0,2.058,0.926,2.058,2.058v1.229
					C685.345,499.036,684.419,499.962,683.287,499.962z"/>
			</g>
		</g>
		<g>
			<g>
				
					<ellipse transform="matrix(0.8645 -0.5027 0.5027 0.8645 -195.2465 360.5826)" style="fill:#79A39B;" cx="571.104" cy="542.391" rx="7.82" ry="7.82"/>
			</g>
			<g>
				<path style="fill:#79A39B;" d="M735.12,537.244H611.589c-1.47,0-2.672-1.203-2.672-2.673l0,0c0-1.47,1.203-2.673,2.672-2.673
					H735.12c1.47,0,2.673,1.203,2.673,2.673l0,0C737.793,536.041,736.59,537.244,735.12,537.244z"/>
			</g>
			<g>
				<path style="fill:#79A39B;" d="M802.828,539.978h-20.891c-2.44,0-4.436-1.996-4.436-4.436l0,0c0-2.44,1.996-4.436,4.436-4.436
					h20.891c2.44,0,4.436,1.996,4.436,4.436l0,0C807.263,537.982,805.267,539.978,802.828,539.978z"/>
			</g>
			<g>
				<path style="fill:#79A39B;" d="M683.287,553.576h-72.313c-1.132,0-2.058-0.926-2.058-2.058v-1.229
					c0-1.132,0.926-2.058,2.058-2.058h72.313c1.132,0,2.058,0.926,2.058,2.058v1.229
					C685.345,552.65,684.419,553.576,683.287,553.576z"/>
			</g>
		</g>
		<g>
			<g>
				<circle style="fill:#79A39B;" cx="571.104" cy="596.005" r="7.82"/>
			</g>
			<g>
				<path style="fill:#79A39B;" d="M735.12,590.857H611.589c-1.47,0-2.672-1.203-2.672-2.672l0,0c0-1.47,1.203-2.673,2.672-2.673
					H735.12c1.47,0,2.673,1.203,2.673,2.673l0,0C737.793,589.655,736.59,590.857,735.12,590.857z"/>
			</g>
			<g>
				<path style="fill:#79A39B;" d="M802.828,593.592h-20.891c-2.44,0-4.436-1.996-4.436-4.436l0,0c0-2.44,1.996-4.436,4.436-4.436
					h20.891c2.44,0,4.436,1.996,4.436,4.436l0,0C807.263,591.596,805.267,593.592,802.828,593.592z"/>
			</g>
			<g>
				<path style="fill:#79A39B;" d="M683.287,607.19h-72.313c-1.132,0-2.058-0.926-2.058-2.058v-1.229
					c0-1.132,0.926-2.058,2.058-2.058h72.313c1.132,0,2.058,0.926,2.058,2.058v1.229C685.345,606.263,684.419,607.19,683.287,607.19
					z"/>
			</g>
		</g>
		<g>
			<g>
				
					<ellipse transform="matrix(0.9715 -0.2372 0.2372 0.9715 -134.7694 177.0569)" style="fill:#79A39B;" cx="668.511" cy="648.666" rx="44.301" ry="23.259"/>
			</g>
			<g>
				<path style="fill:#2F1A31;" d="M625.475,659.714c-0.162,0-0.321-0.072-0.428-0.21c-0.183-0.236-0.14-0.576,0.096-0.758
					c0.201-0.155,20.338-15.466,47.304-10.611c13.782,2.481,22.944-1.707,28.206-5.656c5.692-4.272,8.158-9.166,8.182-9.214
					c0.132-0.268,0.457-0.377,0.725-0.245c0.268,0.133,0.377,0.458,0.245,0.725c-0.09,0.182-8.31,16.216-29.332,16.218
					c-2.549,0-5.283-0.235-8.217-0.764c-26.486-4.768-46.253,10.249-46.45,10.402C625.707,659.677,625.59,659.714,625.475,659.714z"
					/>
			</g>
			<g>
				
					<ellipse transform="matrix(0.1884 -0.9821 0.9821 0.1884 -92.9274 1234.1462)" style="fill:#8FBCB3;" cx="700.224" cy="673.296" rx="18.04" ry="34.36"/>
			</g>
			<g>
				<path style="fill:#2F1A31;" d="M719.672,680.661c-4.87,0.001-10.68-1.406-16.979-5.781c-17.153-11.914-35.93-7.691-36.119-7.648
					c-0.225,0.055-0.451-0.086-0.504-0.313c-0.053-0.225,0.087-0.451,0.313-0.504c0.19-0.046,19.332-4.349,36.789,7.775
					c8.902,6.183,16.703,6.195,21.68,5.119c5.404-1.17,8.75-3.842,8.783-3.868c0.18-0.147,0.444-0.118,0.59,0.061
					c0.146,0.18,0.119,0.444-0.062,0.59C734.075,676.164,728.379,680.661,719.672,680.661z"/>
			</g>
		</g>
	</g>
	<g style="opacity:0.6;">
		<path style="fill:#9BBCB6;" d="M1457.393,390.564H926.284c-9.169,0-16.839-6.964-17.722-16.091l-7.363-76.129
			c-1.131-11.69,8.058-21.81,19.802-21.81h545.995c10.692,0,18.972,9.356,17.673,19.969l-9.603,78.42
			C1473.972,383.853,1466.389,390.564,1457.393,390.564z"/>
	</g>
	<g>
		<path style="fill:#79A39B;" d="M1457.393,394.127H926.284c-11.06,0-20.204-8.302-21.269-19.311l-7.364-76.129
			c-0.635-6.57,1.545-13.141,5.982-18.028c4.437-4.886,10.767-7.689,17.367-7.689h545.995c6.116,0,11.948,2.626,16.001,7.207
			c4.053,4.58,5.952,10.688,5.208,16.759l-9.603,78.42C1477.292,386.058,1468.174,394.127,1457.393,394.127z M921,280.098
			c-4.663,0-8.957,1.901-12.091,5.353c-3.134,3.452-4.613,7.909-4.165,12.551l7.364,76.128c0.709,7.337,6.804,12.87,14.175,12.87
			h531.109c7.185,0,13.262-5.378,14.136-12.51l9.603-78.42c0.496-4.046-0.77-8.117-3.471-11.169
			c-2.702-3.052-6.588-4.803-10.665-4.803H921z"/>
	</g>
	<g>
		<g>
			<g>
				<g>
					
						<ellipse transform="matrix(0.9715 -0.2372 0.2372 0.9715 -44.2651 289.6772)" style="fill:#79A39B;" cx="1181.835" cy="328.815" rx="44.301" ry="23.259"/>
				</g>
			</g>
			<g>
				<path style="fill:#2F1A31;" d="M1138.798,339.862c-0.162,0-0.321-0.072-0.428-0.21c-0.183-0.236-0.14-0.576,0.096-0.758
					c0.2-0.155,20.338-15.462,47.304-10.611c13.752,2.476,22.906-1.693,28.165-5.625c5.709-4.27,8.2-9.197,8.225-9.246
					c0.133-0.267,0.458-0.375,0.725-0.244c0.268,0.133,0.377,0.457,0.245,0.725c-0.09,0.182-8.311,16.216-29.333,16.218
					c-2.549,0-5.283-0.235-8.217-0.764c-26.485-4.769-46.253,10.25-46.45,10.402
					C1139.031,339.825,1138.914,339.862,1138.798,339.862z"/>
			</g>
		</g>
		<g>
			<g>
				<g>
					
						<ellipse transform="matrix(0.3484 -0.9373 0.9373 0.3484 382.6483 1259.7456)" style="fill:#79A39B;" cx="1097.457" cy="354.635" rx="11.629" ry="22.15"/>
				</g>
			</g>
			<g>
				<path style="fill:#2F1A31;" d="M1111.735,361.619c-3.628,0-8.258-1.204-12.877-5.714c-9.634-9.406-22.017-8.726-22.146-8.718
					c-0.146,0.016-0.277-0.103-0.287-0.253c-0.009-0.149,0.104-0.277,0.252-0.287c0.13-0.004,12.755-0.701,22.559,8.872
					c9.563,9.337,19.138,4.1,19.233,4.047c0.131-0.074,0.295-0.028,0.369,0.102s0.028,0.295-0.102,0.369
					C1118.683,360.066,1115.854,361.618,1111.735,361.619z"/>
			</g>
		</g>
		<g>
			
				<ellipse transform="matrix(0.1884 -0.9821 0.9821 0.1884 637.8179 1478.6808)" style="fill:#8FBCB3;" cx="1213.547" cy="353.445" rx="18.04" ry="34.36"/>
		</g>
		<g>
			<path style="fill:#2F1A31;" d="M1232.997,360.81c-4.87,0-10.681-1.407-16.98-5.782c-17.154-11.914-35.931-7.692-36.119-7.648
				c-0.225,0.056-0.451-0.087-0.504-0.313c-0.053-0.226,0.087-0.451,0.313-0.504c0.19-0.045,19.332-4.351,36.789,7.775
				c8.902,6.183,16.703,6.196,21.68,5.119c5.404-1.17,8.75-3.841,8.784-3.868c0.179-0.146,0.444-0.118,0.59,0.062
				c0.146,0.18,0.119,0.444-0.062,0.59C1247.399,356.312,1241.703,360.81,1232.997,360.81z"/>
		</g>
		<g>
			
				<ellipse transform="matrix(0.1884 -0.9821 0.9821 0.1884 750.7992 1575.6028)" style="fill:#8FBCB3;" cx="1328.678" cy="333.549" rx="18.04" ry="34.36"/>
		</g>
		<g>
			<path style="fill:#2F1A31;" d="M1348.127,340.915c-4.87,0-10.681-1.407-16.98-5.782c-17.154-11.915-35.931-7.691-36.119-7.648
				c-0.225,0.056-0.451-0.087-0.504-0.313c-0.053-0.226,0.087-0.451,0.313-0.504c0.19-0.046,19.332-4.35,36.789,7.775
				c8.902,6.184,16.704,6.196,21.68,5.119c5.404-1.17,8.75-3.841,8.784-3.868c0.18-0.146,0.443-0.118,0.59,0.062
				c0.146,0.18,0.119,0.444-0.062,0.59C1362.53,336.417,1356.833,340.914,1348.127,340.915z"/>
		</g>
		<g>
			
				<ellipse transform="matrix(0.9859 -0.1673 0.1673 0.9859 -41.104 179.0389)" style="fill:#8FBCB3;" cx="1042.381" cy="333.549" rx="34.36" ry="18.04"/>
		</g>
		<g>
			<path style="fill:#2F1A31;" d="M1008.505,339.715c-0.136,0-0.269-0.065-0.35-0.186c-0.129-0.193-0.076-0.454,0.116-0.582
				c0.164-0.109,16.586-10.84,37.183-5.592c10.503,2.678,17.815-0.041,22.101-2.793c4.653-2.987,6.853-6.661,6.875-6.698
				c0.117-0.2,0.374-0.267,0.574-0.148c0.199,0.118,0.266,0.374,0.149,0.574c-0.076,0.129-6.669,11.002-21.384,11.003
				c-2.587,0-5.423-0.336-8.521-1.125c-20.237-5.158-36.35,5.37-36.51,5.477C1008.666,339.693,1008.585,339.715,1008.505,339.715z"
				/>
		</g>
		<g>
			<g>
				<g>
					
						<ellipse transform="matrix(0.9398 -0.3417 0.3417 0.9398 -42.4745 467.1223)" style="fill:#79A39B;" cx="1304.823" cy="354.137" rx="22.15" ry="11.629"/>
				</g>
			</g>
			<g>
				<path style="fill:#2F1A31;" d="M1284.005,361.976c-0.071,0-0.142-0.028-0.194-0.082c-0.104-0.107-0.101-0.279,0.006-0.382
					c0.092-0.088,9.254-8.792,22.933-7.853c13.359,0.933,17.238-9.271,17.275-9.374c0.052-0.141,0.205-0.212,0.347-0.161
					c0.141,0.051,0.212,0.207,0.161,0.347c-0.039,0.107-4.064,10.677-17.82,9.729c-13.422-0.933-22.43,7.615-22.52,7.702
					C1284.141,361.95,1284.073,361.976,1284.005,361.976z"/>
			</g>
		</g>
		<g>
			<g>
				<g>
					<path style="fill:#79A39B;" d="M1430.459,356.889c-0.798,6.373-11.285,10.307-23.423,8.788
						c-12.138-1.52-21.332-7.918-20.534-14.291c0.798-6.373,11.285-10.307,23.423-8.788
						C1422.064,344.117,1431.257,350.516,1430.459,356.889z"/>
				</g>
			</g>
			<g>
				<path style="fill:#2F1A31;" d="M1420.237,358.095c-2.915,0-6.335-0.773-10.103-3.043c-11.533-6.946-23.436-3.444-23.555-3.408
					c-0.143,0.042-0.294-0.038-0.337-0.18c-0.043-0.143,0.037-0.294,0.18-0.337c0.122-0.036,12.254-3.607,23.991,3.463
					c11.45,6.895,19.569-0.396,19.649-0.471c0.11-0.101,0.28-0.095,0.382,0.015c0.101,0.11,0.095,0.281-0.015,0.382
					C1430.374,354.568,1426.458,358.095,1420.237,358.095z"/>
			</g>
		</g>
		<g>
			<g>
				<g>
					<path style="fill:#79A39B;" d="M992.614,349.343c1.072,6.333-7.836,13.122-19.898,15.164
						c-12.062,2.042-22.709-1.435-23.781-7.768c-1.072-6.333,7.836-13.122,19.898-15.164
						C980.894,339.532,991.542,343.01,992.614,349.343z"/>
				</g>
			</g>
			<g>
				<path style="fill:#2F1A31;" d="M948.935,357.009c-0.088,0-0.173-0.043-0.225-0.121c-0.083-0.125-0.049-0.292,0.075-0.375
					c0.105-0.071,10.691-6.983,23.971-3.598c12.966,3.31,18.625-6.017,18.681-6.112c0.075-0.128,0.241-0.172,0.37-0.096
					c0.128,0.076,0.172,0.241,0.096,0.37c-0.057,0.098-5.924,9.772-19.28,6.362c-13.036-3.326-23.435,3.455-23.538,3.523
					C949.039,356.995,948.987,357.009,948.935,357.009z"/>
			</g>
		</g>
	</g>
	<g>
		<g>
			<path style="fill:#9BBCB6;" d="M908.553,1290.199c3.188,14.19,9.032,27.448,17.38,39.359c2.177,3.107,7.329,0.142,5.128-2.998
				c-8.076-11.524-13.697-24.209-16.781-37.941C913.442,1284.893,907.715,1286.47,908.553,1290.199L908.553,1290.199z"/>
		</g>
	</g>
	<g>
		<g>
			<path style="fill:#9BBCB6;" d="M923.846,1277.474c1.329,6.626,3.583,12.927,6.669,18.936c1.747,3.401,6.873,0.4,5.128-2.998
				c-2.86-5.568-4.84-11.382-6.071-17.517C928.822,1272.151,923.096,1273.735,923.846,1277.474L923.846,1277.474z"/>
		</g>
	</g>
	<g>
		<g>
			<path style="fill:#9BBCB6;" d="M1173.223,1393.108c2.771,10.666,7.656,20.271,14.472,28.915c2.365,2.999,6.542-1.229,4.199-4.199
				c-6.17-7.826-10.442-16.66-12.944-26.294C1177.989,1387.832,1172.259,1389.4,1173.223,1393.108L1173.223,1393.108z"/>
		</g>
	</g>
	<g>
		<g>
			<path style="fill:#9BBCB6;" d="M1192.733,1403.254c5.395,9.85,10.949,19.608,16.663,29.277c1.943,3.288,7.079,0.303,5.128-2.997
				c-5.715-9.668-11.269-19.426-16.663-29.277C1196.025,1396.903,1190.894,1399.897,1192.733,1403.254L1192.733,1403.254z"/>
		</g>
	</g>
	<g>
		<g>
			<path style="fill:#9BBCB6;" d="M1530.191,1191.916c3.037,11.868,7.424,23.234,13.101,34.087c1.772,3.388,6.9,0.389,5.128-2.998
				c-5.448-10.413-9.59-21.286-12.503-32.669C1534.971,1186.637,1529.242,1188.205,1530.191,1191.916L1530.191,1191.916z"/>
		</g>
	</g>
	<g>
		<g>
			<path style="fill:#9BBCB6;" d="M1559.536,1203.904c4.683,13.922,10.089,27.563,16.182,40.927
				c1.583,3.473,6.704,0.458,5.128-2.998c-5.882-12.9-11.064-26.071-15.583-39.508
				C1564.05,1198.722,1558.312,1200.267,1559.536,1203.904L1559.536,1203.904z"/>
		</g>
	</g>
</g>
</svg>
